
<svg xmlns="http://www.w3.org/2000/svg" xmlns:xlink="http://www.w3.org/1999/xlink" class="{{ with .class }}{{ . }} {{ end }}icon icon-calendar"  width="16px" height="16px" viewBox="0 0 16 16" version="1.1">
<g id="surface1">
<path style=" stroke:none;fill-rule:nonzero;fill:rgb(29.019608%,29.019608%,29.019608%);fill-opacity:1;" d="M 2 5.332031 L 2 12.667969 C 2 13.035156 2.296875 13.332031 2.664062 13.332031 L 13.335938 13.332031 C 13.703125 13.332031 14 13.035156 14 12.667969 L 14 5.332031 C 14 4.964844 13.703125 4.667969 13.335938 4.667969 L 2.664062 4.667969 C 2.296875 4.667969 2 4.964844 2 5.332031 Z M 0.667969 5.332031 C 0.667969 4.230469 1.558594 3.332031 2.664062 3.332031 L 13.335938 3.332031 C 14.441406 3.332031 15.332031 4.230469 15.332031 5.332031 L 15.332031 12.667969 C 15.332031 13.769531 14.441406 14.667969 13.335938 14.667969 L 2.664062 14.667969 C 1.558594 14.667969 0.667969 13.769531 0.667969 12.667969 Z M 2 7.332031 L 2 6 L 14 6 L 14 7.332031 Z M 4 2 C 4 1.632812 4.296875 1.332031 4.667969 1.332031 C 5.035156 1.332031 5.332031 1.628906 5.332031 2 L 5.332031 3.332031 L 4 3.332031 Z M 10.667969 2 C 10.667969 1.632812 10.960938 1.332031 11.332031 1.332031 C 11.703125 1.332031 12 1.628906 12 2 L 12 3.332031 L 10.667969 3.332031 Z M 10.667969 2 "/>
</g>
</svg>
