
<svg xmlns="http://www.w3.org/2000/svg" xmlns:xlink="http://www.w3.org/1999/xlink" class="{{ with .class }}{{ . }} {{ end }}icon icon-clock"  width="16px" height="16px" viewBox="0 0 16 16" version="1.1">
<g id="surface1">
<path style=" stroke:none;fill-rule:nonzero;fill:rgb(29.019608%,29.019608%,29.019608%);fill-opacity:1;" d="M 8 12.667969 C 10.578125 12.667969 12.667969 10.578125 12.667969 8 C 12.667969 5.421875 10.578125 3.332031 8 3.332031 C 5.421875 3.332031 3.332031 5.421875 3.332031 8 C 3.332031 10.578125 5.421875 12.667969 8 12.667969 Z M 3.957031 12.433594 C 2.753906 11.335938 2 9.757812 2 8 C 2 4.6875 4.6875 2 8 2 C 11.3125 2 14 4.6875 14 8 C 14 9.757812 13.246094 11.335938 12.042969 12.433594 L 12.9375 13.328125 C 13.207031 13.597656 13.203125 14.015625 12.941406 14.277344 C 12.679688 14.539062 12.257812 14.535156 11.996094 14.273438 L 10.949219 13.226562 C 10.078125 13.71875 9.070312 14 8 14 C 6.929688 14 5.921875 13.71875 5.050781 13.226562 L 4.003906 14.273438 C 3.738281 14.539062 3.316406 14.535156 3.058594 14.277344 C 2.796875 14.015625 2.796875 13.589844 3.0625 13.328125 Z M 7.332031 5.335938 C 7.332031 4.964844 7.628906 4.667969 8 4.667969 C 8.367188 4.667969 8.667969 4.957031 8.667969 5.335938 L 8.667969 9.332031 L 7.332031 9.332031 Z M 5.332031 8.667969 C 5.332031 8.296875 5.628906 8 6 8 L 7.332031 8 L 7.332031 9.332031 L 6 9.332031 C 5.632812 9.332031 5.332031 9.039062 5.332031 8.667969 Z M 5.332031 8.667969 "/>
</g>
</svg>
