
<svg xmlns="http://www.w3.org/2000/svg" xmlns:xlink="http://www.w3.org/1999/xlink" class="{{ with .class }}{{ . }} {{ end }}icon icon-date" width="16px" height="16px" viewBox="0 0 16 16" version="1.1">
<g id="surface1">
<path style=" stroke:none;fill-rule:nonzero;fill:rgb(95.686275%,93.72549%,93.72549%);fill-opacity:1;" d="M 15.808594 3.769531 C 15.808594 3.007812 15.25 2.386719 14.554688 2.386719 L 1.320312 2.386719 C 0.632812 2.386719 0.0625 3.007812 0.0625 3.769531 L 0.0625 12.816406 C 0.0625 13.578125 0.621094 14.199219 1.320312 14.199219 L 14.554688 14.199219 C 15.238281 14.199219 15.808594 13.578125 15.808594 12.816406 Z M 15.808594 3.769531 "/>
<path style=" stroke:none;fill-rule:nonzero;fill:rgb(87.45098%,36.078431%,30.588235%);fill-opacity:1;" d="M 15.9375 3.90625 L 15.9375 3.742188 C 15.9375 2.980469 15.570312 2.386719 14.808594 2.386719 L 1.699219 2.386719 C 0.9375 2.386719 0.203125 2.980469 0.203125 3.742188 L 0.203125 3.90625 Z M 15.9375 3.90625 "/>
<path style=" stroke:none;fill-rule:nonzero;fill:rgb(0%,0%,0%);fill-opacity:1;" d="M 14.617188 14.375 L 1.382812 14.375 C 0.621094 14.375 0 13.703125 0 12.867188 L 0 3.820312 C 0 2.996094 0.621094 2.308594 1.382812 2.308594 L 14.617188 2.308594 C 15.378906 2.308594 16 2.980469 16 3.820312 L 16 12.867188 C 16 13.703125 15.378906 14.375 14.617188 14.375 Z M 1.394531 2.574219 C 0.773438 2.574219 0.265625 3.132812 0.265625 3.832031 L 0.265625 12.878906 C 0.265625 13.5625 0.773438 14.136719 1.394531 14.136719 L 14.628906 14.136719 C 15.25 14.136719 15.757812 13.578125 15.757812 12.878906 L 15.757812 3.832031 C 15.757812 3.148438 15.25 2.574219 14.628906 2.574219 Z M 1.394531 2.574219 "/>
<path style=" stroke:none;fill-rule:nonzero;fill:rgb(0%,0%,0%);fill-opacity:1;" d="M 12.382812 4.097656 L 0.457031 4.097656 C 0.378906 4.097656 0.328125 4.046875 0.328125 3.972656 C 0.328125 3.894531 0.378906 3.84375 0.457031 3.84375 L 12.382812 3.84375 C 12.460938 3.84375 12.511719 3.894531 12.511719 3.972656 C 12.511719 4.046875 12.460938 4.097656 12.382812 4.097656 Z M 12.382812 4.097656 "/>
<path style=" stroke:none;fill-rule:nonzero;fill:rgb(0%,0%,0%);fill-opacity:1;" d="M 15.808594 4.097656 L 14.035156 4.097656 C 13.957031 4.097656 13.90625 4.046875 13.90625 3.972656 C 13.90625 3.894531 13.957031 3.84375 14.035156 3.84375 L 15.808594 3.84375 C 15.886719 3.84375 15.9375 3.894531 15.9375 3.972656 C 15.9375 4.046875 15.886719 4.097656 15.808594 4.097656 Z M 15.808594 4.097656 "/>
<path style=" stroke:none;fill-rule:nonzero;fill:rgb(0%,0%,0%);fill-opacity:1;" d="M 2.296875 3.148438 C 2.21875 3.148438 2.167969 3.097656 2.167969 3.019531 L 2.167969 1.75 C 2.167969 1.675781 2.21875 1.625 2.296875 1.625 C 2.371094 1.625 2.421875 1.675781 2.421875 1.75 L 2.421875 3.019531 C 2.421875 3.097656 2.371094 3.148438 2.296875 3.148438 Z M 2.296875 3.148438 "/>
<path style=" stroke:none;fill-rule:nonzero;fill:rgb(0%,0%,0%);fill-opacity:1;" d="M 4.199219 3.148438 C 4.125 3.148438 4.074219 3.097656 4.074219 3.019531 L 4.074219 1.75 C 4.074219 1.675781 4.125 1.625 4.199219 1.625 C 4.277344 1.625 4.328125 1.675781 4.328125 1.75 L 4.328125 3.019531 C 4.328125 3.097656 4.277344 3.148438 4.199219 3.148438 Z M 4.199219 3.148438 "/>
<path style=" stroke:none;fill-rule:nonzero;fill:rgb(0%,0%,0%);fill-opacity:1;" d="M 6.101562 3.148438 C 6.027344 3.148438 5.976562 3.097656 5.976562 3.019531 L 5.976562 1.75 C 5.976562 1.675781 6.027344 1.625 6.101562 1.625 C 6.179688 1.625 6.230469 1.675781 6.230469 1.75 L 6.230469 3.019531 C 6.230469 3.097656 6.179688 3.148438 6.101562 3.148438 Z M 6.101562 3.148438 "/>
<path style=" stroke:none;fill-rule:nonzero;fill:rgb(0%,0%,0%);fill-opacity:1;" d="M 8.007812 3.148438 C 7.929688 3.148438 7.878906 3.097656 7.878906 3.019531 L 7.878906 1.75 C 7.878906 1.675781 7.929688 1.625 8.007812 1.625 C 8.082031 1.625 8.132812 1.675781 8.132812 1.75 L 8.132812 3.019531 C 8.132812 3.097656 8.082031 3.148438 8.007812 3.148438 Z M 8.007812 3.148438 "/>
<path style=" stroke:none;fill-rule:nonzero;fill:rgb(0%,0%,0%);fill-opacity:1;" d="M 9.910156 3.148438 C 9.832031 3.148438 9.78125 3.097656 9.78125 3.019531 L 9.78125 1.75 C 9.78125 1.675781 9.832031 1.625 9.910156 1.625 C 9.984375 1.625 10.035156 1.675781 10.035156 1.75 L 10.035156 3.019531 C 10.035156 3.097656 9.984375 3.148438 9.910156 3.148438 Z M 9.910156 3.148438 "/>
<path style=" stroke:none;fill-rule:nonzero;fill:rgb(0%,0%,0%);fill-opacity:1;" d="M 11.8125 3.148438 C 11.738281 3.148438 11.6875 3.097656 11.6875 3.019531 L 11.6875 1.75 C 11.6875 1.675781 11.738281 1.625 11.8125 1.625 C 11.890625 1.625 11.941406 1.675781 11.941406 1.75 L 11.941406 3.019531 C 11.941406 3.097656 11.890625 3.148438 11.8125 3.148438 Z M 11.8125 3.148438 "/>
<path style=" stroke:none;fill-rule:nonzero;fill:rgb(0%,0%,0%);fill-opacity:1;" d="M 13.714844 3.148438 C 13.640625 3.148438 13.589844 3.097656 13.589844 3.019531 L 13.589844 1.75 C 13.589844 1.675781 13.640625 1.625 13.714844 1.625 C 13.792969 1.625 13.84375 1.675781 13.84375 1.75 L 13.84375 3.019531 C 13.84375 3.097656 13.792969 3.148438 13.714844 3.148438 Z M 13.714844 3.148438 "/>
<path style=" stroke:none;fill-rule:nonzero;fill:rgb(0%,0%,0%);fill-opacity:1;" d="M 2.613281 6 L 1.726562 6 C 1.648438 6 1.597656 5.949219 1.597656 5.875 C 1.597656 5.796875 1.648438 5.746094 1.726562 5.746094 L 2.613281 5.746094 C 2.691406 5.746094 2.742188 5.796875 2.742188 5.875 C 2.742188 5.949219 2.691406 6 2.613281 6 Z M 2.613281 6 "/>
<path style=" stroke:none;fill-rule:nonzero;fill:rgb(0%,0%,0%);fill-opacity:1;" d="M 2.613281 7.269531 L 1.726562 7.269531 C 1.648438 7.269531 1.597656 7.21875 1.597656 7.144531 C 1.597656 7.066406 1.648438 7.015625 1.726562 7.015625 L 2.613281 7.015625 C 2.691406 7.015625 2.742188 7.066406 2.742188 7.144531 C 2.742188 7.21875 2.691406 7.269531 2.613281 7.269531 Z M 2.613281 7.269531 "/>
<path style=" stroke:none;fill-rule:nonzero;fill:rgb(0%,0%,0%);fill-opacity:1;" d="M 2.613281 8.539062 L 1.726562 8.539062 C 1.648438 8.539062 1.597656 8.488281 1.597656 8.414062 C 1.597656 8.335938 1.648438 8.285156 1.726562 8.285156 L 2.613281 8.285156 C 2.691406 8.285156 2.742188 8.335938 2.742188 8.414062 C 2.742188 8.488281 2.691406 8.539062 2.613281 8.539062 Z M 2.613281 8.539062 "/>
<path style=" stroke:none;fill-rule:nonzero;fill:rgb(0%,0%,0%);fill-opacity:1;" d="M 2.613281 9.808594 L 1.726562 9.808594 C 1.648438 9.808594 1.597656 9.757812 1.597656 9.679688 C 1.597656 9.605469 1.648438 9.554688 1.726562 9.554688 L 2.613281 9.554688 C 2.691406 9.554688 2.742188 9.605469 2.742188 9.679688 C 2.742188 9.757812 2.691406 9.808594 2.613281 9.808594 Z M 2.613281 9.808594 "/>
<path style=" stroke:none;fill-rule:nonzero;fill:rgb(0%,0%,0%);fill-opacity:1;" d="M 2.613281 11.078125 L 1.726562 11.078125 C 1.648438 11.078125 1.597656 11.027344 1.597656 10.949219 C 1.597656 10.875 1.648438 10.824219 1.726562 10.824219 L 2.613281 10.824219 C 2.691406 10.824219 2.742188 10.875 2.742188 10.949219 C 2.742188 11.027344 2.691406 11.078125 2.613281 11.078125 Z M 2.613281 11.078125 "/>
<path style=" stroke:none;fill-rule:nonzero;fill:rgb(0%,0%,0%);fill-opacity:1;" d="M 2.613281 12.347656 L 1.726562 12.347656 C 1.648438 12.347656 1.597656 12.296875 1.597656 12.21875 C 1.597656 12.144531 1.648438 12.09375 1.726562 12.09375 L 2.613281 12.09375 C 2.691406 12.09375 2.742188 12.144531 2.742188 12.21875 C 2.742188 12.296875 2.691406 12.347656 2.613281 12.347656 Z M 2.613281 12.347656 "/>
<path style=" stroke:none;fill-rule:nonzero;fill:rgb(0%,0%,0%);fill-opacity:1;" d="M 14.285156 6 L 3.753906 6 C 3.679688 6 3.628906 5.949219 3.628906 5.875 C 3.628906 5.796875 3.679688 5.746094 3.753906 5.746094 L 14.285156 5.746094 C 14.363281 5.746094 14.414062 5.796875 14.414062 5.875 C 14.414062 5.949219 14.363281 6 14.285156 6 Z M 14.285156 6 "/>
<path style=" stroke:none;fill-rule:nonzero;fill:rgb(0%,0%,0%);fill-opacity:1;" d="M 8.832031 7.269531 L 3.753906 7.269531 C 3.679688 7.269531 3.628906 7.21875 3.628906 7.144531 C 3.628906 7.066406 3.679688 7.015625 3.753906 7.015625 L 8.832031 7.015625 C 8.90625 7.015625 8.957031 7.066406 8.957031 7.144531 C 8.957031 7.21875 8.90625 7.269531 8.832031 7.269531 Z M 8.832031 7.269531 "/>
<path style=" stroke:none;fill-rule:nonzero;fill:rgb(0%,0%,0%);fill-opacity:1;" d="M 14.285156 7.269531 L 9.972656 7.269531 C 9.898438 7.269531 9.847656 7.21875 9.847656 7.144531 C 9.847656 7.066406 9.898438 7.015625 9.972656 7.015625 L 14.285156 7.015625 C 14.363281 7.015625 14.414062 7.066406 14.414062 7.144531 C 14.414062 7.21875 14.363281 7.269531 14.285156 7.269531 Z M 14.285156 7.269531 "/>
<path style=" stroke:none;fill-rule:nonzero;fill:rgb(0%,0%,0%);fill-opacity:1;" d="M 14.285156 8.539062 L 12.382812 8.539062 C 12.308594 8.539062 12.257812 8.488281 12.257812 8.414062 C 12.257812 8.335938 12.308594 8.285156 12.382812 8.285156 L 14.285156 8.285156 C 14.363281 8.285156 14.414062 8.335938 14.414062 8.414062 C 14.414062 8.488281 14.363281 8.539062 14.285156 8.539062 Z M 14.285156 8.539062 "/>
<path style=" stroke:none;fill-rule:nonzero;fill:rgb(0%,0%,0%);fill-opacity:1;" d="M 11.242188 8.539062 L 3.753906 8.539062 C 3.679688 8.539062 3.628906 8.488281 3.628906 8.414062 C 3.628906 8.335938 3.679688 8.285156 3.753906 8.285156 L 11.242188 8.285156 C 11.316406 8.285156 11.367188 8.335938 11.367188 8.414062 C 11.367188 8.488281 11.316406 8.539062 11.242188 8.539062 Z M 11.242188 8.539062 "/>
<path style=" stroke:none;fill-rule:nonzero;fill:rgb(0%,0%,0%);fill-opacity:1;" d="M 14.285156 9.808594 L 3.753906 9.808594 C 3.679688 9.808594 3.628906 9.757812 3.628906 9.679688 C 3.628906 9.605469 3.679688 9.554688 3.753906 9.554688 L 14.285156 9.554688 C 14.363281 9.554688 14.414062 9.605469 14.414062 9.679688 C 14.414062 9.757812 14.363281 9.808594 14.285156 9.808594 Z M 14.285156 9.808594 "/>
<path style=" stroke:none;fill-rule:nonzero;fill:rgb(0%,0%,0%);fill-opacity:1;" d="M 8.832031 11.078125 L 3.753906 11.078125 C 3.679688 11.078125 3.628906 11.027344 3.628906 10.949219 C 3.628906 10.875 3.679688 10.824219 3.753906 10.824219 L 8.832031 10.824219 C 8.90625 10.824219 8.957031 10.875 8.957031 10.949219 C 8.957031 11.027344 8.90625 11.078125 8.832031 11.078125 Z M 8.832031 11.078125 "/>
<path style=" stroke:none;fill-rule:nonzero;fill:rgb(0%,0%,0%);fill-opacity:1;" d="M 14.285156 11.078125 L 9.972656 11.078125 C 9.898438 11.078125 9.847656 11.027344 9.847656 10.949219 C 9.847656 10.875 9.898438 10.824219 9.972656 10.824219 L 14.285156 10.824219 C 14.363281 10.824219 14.414062 10.875 14.414062 10.949219 C 14.414062 11.027344 14.363281 11.078125 14.285156 11.078125 Z M 14.285156 11.078125 "/>
<path style=" stroke:none;fill-rule:nonzero;fill:rgb(0%,0%,0%);fill-opacity:1;" d="M 14.285156 12.347656 L 12.382812 12.347656 C 12.308594 12.347656 12.257812 12.296875 12.257812 12.21875 C 12.257812 12.144531 12.308594 12.09375 12.382812 12.09375 L 14.285156 12.09375 C 14.363281 12.09375 14.414062 12.144531 14.414062 12.21875 C 14.414062 12.296875 14.363281 12.347656 14.285156 12.347656 Z M 14.285156 12.347656 "/>
<path style=" stroke:none;fill-rule:nonzero;fill:rgb(0%,0%,0%);fill-opacity:1;" d="M 11.242188 12.347656 L 3.753906 12.347656 C 3.679688 12.347656 3.628906 12.296875 3.628906 12.21875 C 3.628906 12.144531 3.679688 12.09375 3.753906 12.09375 L 11.242188 12.09375 C 11.316406 12.09375 11.367188 12.144531 11.367188 12.21875 C 11.367188 12.296875 11.316406 12.347656 11.242188 12.347656 Z M 11.242188 12.347656 "/>
</g>
</svg>
