
<svg xmlns="http://www.w3.org/2000/svg" xmlns:xlink="http://www.w3.org/1999/xlink" class="{{ with .class }}{{ . }} {{ end }}icon icon-eye"  width="16px" height="16px" viewBox="0 0 16 16" version="1.1">
<g id="surface1">
<path style=" stroke:none;fill-rule:nonzero;fill:rgb(29.019608%,29.019608%,29.019608%);fill-opacity:1;" d="M 8 12.667969 C 6.34375 12.667969 4.679688 11.953125 3.066406 10.777344 C 2.515625 10.371094 2.007812 9.941406 1.554688 9.507812 C 1.28125 9.246094 1.082031 9.039062 1 8.941406 C 0.488281 8.425781 0.488281 7.585938 0.976562 7.082031 C 1.082031 6.960938 1.28125 6.753906 1.554688 6.492188 C 2.007812 6.058594 2.515625 5.628906 3.066406 5.222656 C 4.679688 4.046875 6.34375 3.332031 8 3.332031 C 9.65625 3.332031 11.320312 4.046875 12.933594 5.222656 C 13.484375 5.628906 13.992188 6.058594 14.445312 6.492188 C 14.71875 6.753906 14.917969 6.960938 15 7.058594 C 15.511719 7.574219 15.511719 8.414062 15.023438 8.917969 C 14.917969 9.039062 14.71875 9.246094 14.445312 9.507812 C 13.992188 9.941406 13.484375 10.371094 12.933594 10.777344 C 11.320312 11.953125 9.65625 12.667969 8 12.667969 Z M 8 11.332031 C 9.324219 11.332031 10.742188 10.726562 12.144531 9.699219 C 12.648438 9.332031 13.113281 8.9375 13.523438 8.542969 C 13.769531 8.308594 13.941406 8.128906 14.046875 8.011719 C 14.050781 8.007812 14.050781 7.992188 14.027344 7.96875 C 13.941406 7.871094 13.769531 7.691406 13.523438 7.457031 C 13.113281 7.0625 12.648438 6.667969 12.144531 6.300781 C 10.742188 5.273438 9.324219 4.667969 8 4.667969 C 6.675781 4.667969 5.257812 5.273438 3.855469 6.300781 C 3.351562 6.667969 2.886719 7.0625 2.476562 7.457031 C 2.230469 7.691406 2.058594 7.871094 1.953125 7.988281 C 1.949219 7.992188 1.949219 8.007812 1.972656 8.03125 C 2.058594 8.128906 2.230469 8.308594 2.476562 8.542969 C 2.886719 8.9375 3.351562 9.332031 3.855469 9.699219 C 5.257812 10.726562 6.675781 11.332031 8 11.332031 Z M 8 8.667969 C 8.367188 8.667969 8.667969 8.367188 8.667969 8 C 8.667969 7.632812 8.367188 7.332031 8 7.332031 C 7.632812 7.332031 7.332031 7.632812 7.332031 8 C 7.332031 8.367188 7.632812 8.667969 8 8.667969 Z M 8 10 C 6.894531 10 6 9.105469 6 8 C 6 6.894531 6.894531 6 8 6 C 9.105469 6 10 6.894531 10 8 C 10 9.105469 9.105469 10 8 10 Z M 8 10 "/>
</g>
</svg>
