
<svg xmlns="http://www.w3.org/2000/svg" xmlns:xlink="http://www.w3.org/1999/xlink" class="{{ with .class }}{{ . }} {{ end }}icon icon-folders"  width="16px" height="16px" viewBox="0 0 16 16" version="1.1">
<g id="surface1">
<path style=" stroke:none;fill-rule:nonzero;fill:rgb(29.019608%,29.019608%,29.019608%);fill-opacity:1;" d="M 2 6 L 2 12.664062 C 2 13.03125 2.296875 13.332031 2.664062 13.332031 L 13.335938 13.332031 C 13.703125 13.332031 14 13.035156 14 12.667969 L 14 8 C 14 7.632812 13.703125 7.332031 13.335938 7.332031 L 9.808594 7.332031 L 8.03125 5.332031 L 2.667969 5.332031 C 2.300781 5.332031 2 5.632812 2 6 Z M 13.335938 6 C 14.4375 6 15.332031 6.894531 15.332031 8 L 15.332031 12.667969 C 15.332031 13.769531 14.441406 14.667969 13.335938 14.667969 L 2.664062 14.667969 C 1.558594 14.667969 0.667969 13.761719 0.667969 12.664062 L 0.667969 6 C 0.667969 4.894531 1.5625 4 2.667969 4 L 8.632812 4 L 10.40625 6 Z M 4.425781 3.625 C 4.425781 3.625 4.425781 3.703125 4.425781 4.074219 C 4.425781 4.328125 5.15625 4.75 6 4.667969 C 6.777344 4.589844 8.453125 4.589844 8.796875 5.050781 C 10 6.667969 14.242188 7.15625 14.242188 6.667969 L 14.242188 5.25 C 14.242188 4.949219 14 4.707031 13.699219 4.707031 L 10.8125 4.707031 L 9.359375 3.082031 L 4.972656 3.082031 C 4.667969 3.082031 4.425781 3.328125 4.425781 3.625 Z M 13.699219 3.625 C 14.601562 3.625 15.332031 4.351562 15.332031 5.25 L 15.332031 8 C 15.332031 8.304688 14.667969 6.667969 10 6.667969 C 8.652344 6.160156 9.402344 5.636719 8 5.25 C 6.496094 4.832031 4.703125 5.296875 3.863281 5.285156 C 3.320312 5.273438 3.332031 4.855469 3.332031 4.667969 L 3.332031 3.625 C 3.332031 2.726562 4.066406 2 4.972656 2 L 9.851562 2 L 11.300781 3.625 Z M 13.699219 3.625 "/>
</g>
</svg>
