<svg xmlns="http://www.w3.org/2000/svg" xmlns:xlink="http://www.w3.org/1999/xlink" 
class="{{ with .class }}{{ . }} {{ end }}icon icon-author"
width="16px" height="16px" viewBox="0 0 16 16" version="1.1">
<g id="surface1">
<path style=" stroke:none;fill-rule:nonzero;fill:rgb(29.019608%,29.019608%,29.019608%);fill-opacity:1;" d="M 2 5.121094 L 2 13.109375 C 2 13.484375 2.25 13.617188 2.554688 13.410156 L 5.445312 11.488281 C 5.75 11.28125 6.25 11.28125 6.554688 11.488281 L 9.445312 13.410156 C 9.75 13.617188 10.25 13.617188 10.554688 13.410156 L 13.445312 11.488281 C 13.75 11.28125 14 10.816406 14 10.445312 L 14 2.453125 C 14 2.082031 13.75 1.949219 13.445312 2.152344 L 10.554688 4.078125 C 10.25 4.28125 9.75 4.28125 9.445312 4.078125 L 6.554688 2.152344 C 6.25 1.949219 5.75 1.949219 5.445312 2.152344 L 2.554688 4.078125 C 2.25 4.28125 2 4.75 2 5.121094 Z M 0.667969 5.121094 C 0.667969 4.304688 1.140625 3.421875 1.816406 2.96875 L 4.703125 1.042969 C 5.460938 0.539062 6.542969 0.542969 7.296875 1.042969 L 10.183594 2.96875 C 10.042969 2.875 9.957031 2.875 9.816406 2.96875 L 12.703125 1.042969 C 13.898438 0.246094 15.332031 1.019531 15.332031 2.453125 L 15.332031 10.445312 C 15.332031 11.261719 14.859375 12.144531 14.183594 12.597656 L 11.296875 14.519531 C 10.539062 15.023438 9.457031 15.023438 8.703125 14.519531 L 5.816406 12.597656 C 5.957031 12.691406 6.042969 12.691406 6.183594 12.597656 L 3.296875 14.519531 C 2.101562 15.316406 0.667969 14.542969 0.667969 13.109375 Z M 5.332031 1.78125 L 6.667969 1.78125 L 6.667969 11.78125 L 5.332031 11.78125 Z M 9.332031 3.78125 L 10.667969 3.78125 L 10.667969 13.78125 L 9.332031 13.78125 Z M 9.332031 3.78125 "/>
</g>
</svg>
