
<svg xmlns="http://www.w3.org/2000/svg" xmlns:xlink="http://www.w3.org/1999/xlink" width="16px" height="16px" viewBox="0 0 16 16" version="1.1">
<g id="surface1">
<path style=" stroke:none;fill-rule:nonzero;fill:rgb(29.019608%,29.019608%,29.019608%);fill-opacity:1;" d="M 11.332031 2.667969 C 12.015625 2.667969 12 3.332031 12 3.332031 L 12 6 L 11.332031 6 C 10.960938 6 10.847656 6.238281 11.066406 6.535156 L 12.265625 8.132812 C 12.488281 8.429688 12.847656 8.429688 13.066406 8.132812 L 14.265625 6.535156 C 14.488281 6.238281 14.367188 6 14 6 L 13.347656 6 L 13.347656 4.691406 C 13.347656 4.691406 13.347656 3.136719 13.347656 2.535156 C 13.347656 1.933594 12.679688 1.332031 12 1.332031 L 4.03125 1.332031 C 3.347656 1.332031 2.667969 1.933594 2.667969 2.535156 L 2.667969 4 C 2.667969 4.339844 2.957031 4.691406 3.332031 4.691406 C 3.703125 4.691406 4.015625 4.324219 4.03125 4 C 4.03125 3.992188 4.03125 3.429688 4.03125 3.296875 L 4.03125 3.265625 C 4.03125 3.265625 3.984375 2.667969 4.667969 2.667969 Z M 5.363281 4.054688 C 5.320312 5.085938 4.429688 6.023438 3.332031 6.023438 C 2.210938 6.023438 1.332031 5.070312 1.332031 4 L 1.332031 2.535156 C 1.332031 1.15625 2.648438 0 4.03125 0 L 12 0 C 13.382812 0 14.679688 1.160156 14.679688 2.535156 L 14.679688 4.789062 C 15.671875 5.164062 16.066406 6.355469 15.332031 7.332031 L 14.132812 8.933594 C 13.378906 9.9375 11.957031 9.941406 11.199219 8.933594 L 10 7.332031 C 9.265625 6.355469 9.660156 5.152344 10.667969 4.78125 L 10.667969 4 L 5.363281 4 C 5.363281 4.027344 5.363281 4.046875 5.363281 4.054688 Z M 7.234375 11.988281 L 10.667969 11.988281 C 10.671875 10.921875 11.554688 10 12.667969 10 C 13.777344 10 14.667969 10.921875 14.667969 12 L 14.667969 13.324219 C 14.667969 14.734375 13.40625 15.988281 12 15.988281 L 4 15.988281 C 2.597656 15.988281 1.320312 14.675781 1.320312 13.324219 L 1.320312 11.210938 C 0.328125 10.835938 -0.0664062 9.644531 0.667969 8.667969 L 1.867188 7.066406 C 2.621094 6.0625 4.042969 6.058594 4.800781 7.066406 L 6 8.667969 C 6.734375 9.644531 6.339844 10.847656 5.332031 11.21875 L 5.332031 11.988281 C 5.703125 11.988281 6.09375 11.988281 7.234375 11.988281 Z M 4.667969 13.324219 C 3.984375 13.324219 4 12.722656 4 12.722656 L 4 10 L 4.667969 10 C 5.039062 10 5.152344 9.761719 4.933594 9.464844 L 3.734375 7.867188 C 3.511719 7.570312 3.152344 7.570312 2.933594 7.867188 L 1.734375 9.464844 C 1.511719 9.761719 1.632812 10 2 10 L 2.652344 10 L 2.652344 13.324219 C 2.652344 13.921875 3.320312 14.65625 4 14.65625 L 12 14.65625 C 12.667969 14.65625 13.332031 14 13.332031 13.324219 L 13.332031 12 C 13.332031 11.660156 13.042969 11.332031 12.667969 11.332031 C 12.289062 11.332031 12 11.667969 12 12 L 12 12.722656 C 12 12.722656 12.015625 13.324219 11.332031 13.324219 Z M 4.667969 13.324219 "/>
</g>
</svg>
