<svg xmlns="http://www.w3.org/2000/svg" xmlns:xlink="http://www.w3.org/1999/xlink" class="{{ with .class }}{{ . }} {{ end }}icon icon-translate" width="16px" height="16px" viewBox="0 0 16 16" version="1.1">
<g id="surface1">
<path style="fill:none;stroke-width:1.5;stroke-linecap:round;stroke-linejoin:round;stroke:rgb(16.078431%,17.647059%,19.607843%);stroke-opacity:1;stroke-miterlimit:4;" d="M 19.060547 18.667969 L 16.921875 14.402344 L 14.777344 18.667969 " transform="matrix(0.666667,0,0,0.666667,0,0)"/>
<path style="fill:none;stroke-width:1.5;stroke-linecap:round;stroke-linejoin:round;stroke:rgb(16.078431%,17.647059%,19.607843%);stroke-opacity:1;stroke-miterlimit:4;" d="M 15.169922 17.912109 L 18.691406 17.912109 " transform="matrix(0.666667,0,0,0.666667,0,0)"/>
<path style="fill:none;stroke-width:1.5;stroke-linecap:round;stroke-linejoin:round;stroke:rgb(16.078431%,17.647059%,19.607843%);stroke-opacity:1;stroke-miterlimit:4;" d="M 16.921875 22.001953 C 14.121094 22.001953 11.841797 19.728516 11.841797 16.921875 C 11.841797 14.121094 14.109375 11.841797 16.921875 11.841797 C 19.722656 11.841797 22.001953 14.109375 22.001953 16.921875 C 22.001953 19.728516 19.728516 22.001953 16.921875 22.001953 Z M 16.921875 22.001953 " transform="matrix(0.666667,0,0,0.666667,0,0)"/>
<path style="fill:none;stroke-width:1.5;stroke-linecap:round;stroke-linejoin:round;stroke:rgb(16.078431%,17.647059%,19.607843%);stroke-opacity:1;stroke-miterlimit:4;" d="M 5.021484 1.998047 L 8.941406 1.998047 C 11.009766 1.998047 12.011719 3 11.958984 5.021484 L 11.958984 8.941406 C 12.011719 11.009766 11.009766 12.011719 8.941406 11.958984 L 5.021484 11.958984 C 3 12 1.998047 10.998047 1.998047 8.929687 L 1.998047 5.009766 C 1.998047 3 3 1.998047 5.021484 1.998047 Z M 5.021484 1.998047 " transform="matrix(0.666667,0,0,0.666667,0,0)"/>
<path style="fill:none;stroke-width:1.5;stroke-linecap:round;stroke-linejoin:round;stroke:rgb(16.078431%,17.647059%,19.607843%);stroke-opacity:1;stroke-miterlimit:4;" d="M 9.011719 5.847656 L 4.951172 5.847656 " transform="matrix(0.666667,0,0,0.666667,0,0)"/>
<path style="fill:none;stroke-width:1.5;stroke-linecap:round;stroke-linejoin:round;stroke:rgb(16.078431%,17.647059%,19.607843%);stroke-opacity:1;stroke-miterlimit:4;" d="M 6.972656 5.167969 L 6.972656 5.847656 " transform="matrix(0.666667,0,0,0.666667,0,0)"/>
<path style="fill:none;stroke-width:1.5;stroke-linecap:round;stroke-linejoin:round;stroke:rgb(16.078431%,17.647059%,19.607843%);stroke-opacity:1;stroke-miterlimit:4;" d="M 7.992187 5.841797 C 7.992187 7.587891 6.621094 9.011719 4.939453 9.011719 " transform="matrix(0.666667,0,0,0.666667,0,0)"/>
<path style="fill:none;stroke-width:1.5;stroke-linecap:round;stroke-linejoin:round;stroke:rgb(16.078431%,17.647059%,19.607843%);stroke-opacity:1;stroke-miterlimit:4;" d="M 9.011719 9.011719 C 8.279297 9.011719 7.617187 8.619141 7.160156 7.998047 " transform="matrix(0.666667,0,0,0.666667,0,0)"/>
<path style="fill:none;stroke-width:1.5;stroke-linecap:round;stroke-linejoin:round;stroke:rgb(16.078431%,17.647059%,19.607843%);stroke-opacity:1;stroke-miterlimit:4;" d="M 1.998047 15 C 1.998047 18.867187 5.132812 22.001953 9 22.001953 L 7.951172 20.25 " transform="matrix(0.666667,0,0,0.666667,0,0)"/>
<path style="fill:none;stroke-width:1.5;stroke-linecap:round;stroke-linejoin:round;stroke:rgb(16.078431%,17.647059%,19.607843%);stroke-opacity:1;stroke-miterlimit:4;" d="M 22.001953 9 C 22.001953 5.132812 18.867187 1.998047 15 1.998047 L 16.048828 3.75 " transform="matrix(0.666667,0,0,0.666667,0,0)"/>
</g>
</svg>
