<svg xmlns="http://www.w3.org/2000/svg" viewBox="0 0 64 64"><path fill-rule="evenodd" d="M59.12 36.36c-1.24.99-1.47 3.76-2.38 6.63 -1.42 4.47-3.86 7-10.75 7 -8.02 0-9.17-2.4-10.82-7 -1.13-3.15-.57-7-3.19-7 -2.63 0-2.07 3.85-3.19 7 -1.65 4.6-2.8 7-10.82 7 -6.89 0-9.34-2.53-10.75-7 -.91-2.87-1.14-5.64-2.38-6.64H4.83c-.53-.39-.86-.99-.88-1.64v-2.02h0c-.01-.72.5-1.34 1.21-1.48l0 0c4.21-.81 8.49-1.23 12.79-1.25 9.2 0 10.24 2 14 2 3.75 0 4.79-2 14-2h-.001c4.29.01 8.57.43 12.79 1.24h0c.7.13 1.21.75 1.21 1.47v2.01 0c-.03.65-.35 1.25-.88 1.63Zm-41.13-2.37c-8.87 0-8.75 1.44-7.19 7 .96 3.44 1.71 5 7.18 5 6.3 0 6.08-1.19 7.25-5 1.71-5.57.85-7-7.26-7Zm28 0c-8.11 0-8.97 1.43-7.26 7 1.17 3.81.94 5 7.25 5 5.46 0 6.21-1.56 7.18-5 1.55-5.56 1.68-7-7.19-7ZM57.16 29c-.54-.08-2.22-.18-2.77-.25l-.001-.001c-.56-.09-1.02-.48-1.19-1.01 -3.35-9.78-4.37-16.15-7.15-7.47v-.001c-.16.5-.71.79-1.22.63 -.16-.05-.3-.14-.41-.26 -.52-.53-.49-.51-.99-1.02v0c-.51-.52-.58-1.32-.19-1.92 1.29-1.97 4.21-5.75 6.2-5.75 2.55 0 4.82 4.24 8.48 16.03v0c.13.39-.09.82-.48.95 -.11.03-.22.04-.33.03Zm-37.62-8.34v0c-.38.38-.99.39-1.37.02 -.12-.12-.21-.26-.26-.41 -2.79-8.68-3.8-2.31-7.15 7.46v-.001c-.18.53-.64.91-1.19 1 -.55.07-2.24.17-2.77.24H6.79c-.42.04-.79-.26-.84-.67 -.02-.11-.01-.22.03-.33 3.65-11.79 5.93-16.04 8.48-16.04 1.99 0 4.9 3.77 6.2 5.75v0c.39.6.31 1.39-.19 1.91 -.5.51-.48.48-.99 1.01Z" fill="#A6A299" /></svg>